<?xml version="1.0" encoding="utf-8"?>
<!-- Generator: Adobe Illustrator 16.0.0, SVG Export Plug-In . SVG Version: 6.00 Build 0)  -->
<!DOCTYPE svg PUBLIC "-//W3C//DTD SVG 1.1//EN" "http://www.w3.org/Graphics/SVG/1.1/DTD/svg11.dtd">
<svg version="1.1" xmlns="http://www.w3.org/2000/svg" xmlns:xlink="http://www.w3.org/1999/xlink" x="0px" y="0px" width="220px"
	 height="220px" viewBox="0 0 220 220" enable-background="new 0 0 220 220" xml:space="preserve">
<g id="Layer_1">
	<g id="_x37_fDatp_1_">
		<g id="_x37_fDatp_10_">
			<g>
				
					<image overflow="visible" width="1800" height="1177" id="_x37_fDatp_9_" xlink:href="B1F10F4D381B902D.jpg"  transform="matrix(0.8216 0 0 0.8216 -2811.6074 -1221.0781)">
				</image>
			</g>
		</g>
	</g>
	<g>
		<path fill="none" stroke="#231F20" stroke-width="4.9004" stroke-linecap="round" stroke-miterlimit="10" d="M-1867.303-409.468"
			/>
		<g>
			<polygon opacity="0.8" fill="#FFFFFF" points="-1925.441,-628.197 -1902.188,-651.452 -1902.188,-628.197 			"/>
			<polygon opacity="0.6" fill="#FFFFFF" points="-1902.188,-628.197 -1902.188,-674.708 -1878.932,-628.197 			"/>
			<polygon opacity="0.9" fill="#FFFFFF" points="-1902.188,-674.708 -1878.932,-697.959 -1855.677,-674.708 			"/>
			<polygon opacity="0.7" fill="#FFFFFF" points="-1878.932,-628.197 -1855.677,-674.708 -1902.188,-674.708 			"/>
			<polygon opacity="0.8" fill="#FFFFFF" points="-1855.677,-674.708 -1809.171,-651.452 -1832.424,-628.197 -1878.932,-628.197 			
				"/>
			<polygon opacity="0.7" fill="#FFFFFF" points="-1809.171,-651.452 -1785.913,-628.197 -1832.424,-628.197 			"/>
			<polygon opacity="0.3" fill="#FFFFFF" points="-1925.441,-628.197 -1948.694,-604.943 -1971.949,-558.437 -1902.188,-604.943 			
				"/>
			<polygon opacity="0.5" fill="#FFFFFF" points="-1925.441,-628.197 -1902.188,-604.943 -1855.677,-628.197 			"/>
			<polygon opacity="0.2" fill="#FFFFFF" points="-1902.188,-604.943 -1878.932,-558.437 -1855.677,-628.197 			"/>
			<polygon opacity="0.2" fill="#FFFFFF" points="-1971.949,-558.437 -1902.188,-558.437 -1902.188,-604.943 			"/>
			<polygon opacity="0.4" fill="#FFFFFF" points="-1902.188,-558.437 -1878.932,-535.182 -1878.932,-558.437 -1902.188,-604.943 			
				"/>
			<polygon opacity="0.4" fill="#FFFFFF" points="-1971.949,-558.437 -1948.694,-511.926 -1948.694,-558.437 			"/>
			<polygon opacity="0.1" fill="#FFFFFF" points="-1948.694,-511.926 -1902.188,-558.437 -1948.694,-558.437 			"/>
			<polygon opacity="0.2" fill="#FFFFFF" points="-1948.694,-511.926 -1948.694,-488.671 -1925.441,-511.926 			"/>
			<polygon opacity="0.5" fill="#FFFFFF" points="-1948.694,-511.926 -1902.188,-558.437 -1855.677,-511.926 			"/>
			<polygon opacity="0.5" fill="#FFFFFF" points="-1925.441,-511.926 -1925.441,-488.671 -1902.188,-465.415 -1878.932,-511.926 			
				"/>
			<polygon opacity="0.3" fill="#FFFFFF" points="-1902.188,-465.415 -1855.677,-418.907 -1878.932,-511.926 			"/>
			<polygon opacity="0.1" fill="#FFFFFF" points="-1855.677,-418.907 -1832.424,-465.415 -1878.932,-511.926 			"/>
			<polygon opacity="0.4" fill="#FFFFFF" points="-1832.424,-465.415 -1832.424,-511.926 -1878.932,-511.926 			"/>
			<polygon opacity="0.5" fill="#FFFFFF" points="-1832.424,-488.671 -1785.913,-535.182 -1832.424,-535.182 			"/>
			<polygon opacity="0.3" fill="#FFFFFF" points="-1832.424,-535.182 -1855.677,-511.926 -1832.424,-511.926 			"/>
			<polygon opacity="0.2" fill="#FFFFFF" points="-1832.424,-535.182 -1878.932,-558.437 -1878.932,-535.182 -1855.677,-511.926 			
				"/>
			<polygon opacity="0.4" fill="#FFFFFF" points="-1878.932,-558.437 -1855.677,-628.197 -1832.424,-581.688 			"/>
			<polygon opacity="0.2" fill="#FFFFFF" points="-1832.424,-581.688 -1785.913,-628.197 -1855.677,-628.197 			"/>
			<polygon opacity="0.5" fill="#FFFFFF" points="-1785.913,-628.197 -1762.662,-604.943 -1785.913,-604.943 			"/>
			<polygon opacity="0.4" fill="#FFFFFF" points="-1785.913,-628.197 -1785.913,-604.943 -1832.424,-581.688 			"/>
			<polygon opacity="0.5" fill="#FFFFFF" points="-1878.932,-558.437 -1832.424,-581.688 -1832.424,-535.182 			"/>
			<polygon opacity="0.3" fill="#FFFFFF" points="-1832.424,-535.182 -1809.171,-558.437 -1785.913,-604.943 -1832.424,-581.688 			
				"/>
			<polygon opacity="0.1" fill="#FFFFFF" points="-1809.171,-558.437 -1762.662,-581.688 -1762.662,-604.943 -1785.913,-604.943 			
				"/>
			<polygon opacity="0.1" fill="#FFFFFF" points="-1832.424,-535.182 -1809.171,-558.437 -1785.913,-535.182 			"/>
			<polygon opacity="0.3" fill="#FFFFFF" points="-1785.913,-535.182 -1762.662,-581.688 -1809.171,-558.437 			"/>
			
				<line fill="none" stroke="#FFFFFF" stroke-width="1.6149" stroke-miterlimit="10" x1="-1995.204" y1="-628.197" x2="-1739.403" y2="-628.197"/>
		</g>
		<g>
			<path fill="#FFFFFF" d="M-1995.484-743.97c0-3.83,2.442-6.562,6.686-6.562c1.698,0,3.291,0.457,4.306,0.952v2.981h-1.181v-2.319
				c-0.827-0.331-2.006-0.538-3.063-0.538c-3.146,0-5.464,1.884-5.464,5.464c0,3.768,2.587,5.486,5.444,5.486
				c1.635,0,3.187-0.56,4.306-1.222v1.18c-0.974,0.559-2.547,1.118-4.39,1.118C-1992.628-737.429-1995.484-739.83-1995.484-743.97z"
				/>
			<path fill="#FFFFFF" d="M-1978.75-738.711h2.009v-10.536h-2.009v-1.035h5.734c2.298,0,4.905,0.952,4.905,3.747
				c0,1.905-1.2,3.084-3.022,3.539l2.359,4.285h1.926v1.035h-2.732l-2.753-5.029h-3.167v3.995h2.008v1.035h-5.258V-738.711z
				 M-1972.994-743.721c2.442,0,3.622-1.035,3.622-2.754c0-1.738-1.18-2.773-3.622-2.773h-2.505v5.527H-1972.994z"/>
			<path fill="#FFFFFF" d="M-1962.429-738.711h1.76l4.263-10.536h-1.883v-1.035h3.727l4.657,11.571h1.779v1.035h-5.133v-1.035h2.07
				l-1.262-3.127h-5.734l-1.242,3.127h2.071v1.035h-5.072V-738.711z M-1952.845-742.893l-2.463-6.189l-2.463,6.189H-1952.845z"/>
			<path fill="#FFFFFF" d="M-1943.769-749.248h-1.719v-1.035h5.072v1.035h-2.11l3.145,9.936l3.084-8.798l-0.393-1.138h-1.78v-1.035
				h5.072v1.035h-2.112l3.416,9.894l3.146-9.894h-2.113v-1.035h5.073v1.035h-1.74l-3.767,11.571h-1.138l-3.084-8.776l-3.146,8.776
				h-1.139L-1943.769-749.248z"/>
			<path fill="#FFFFFF" d="M-1921.194-738.711h2.007v-10.536h-2.007v-1.035h9.936v3.602h-1.139v-2.567h-5.546v4.947h5.277v1.035
				h-5.277v4.554h2.319v1.035h-5.569V-738.711z"/>
			<path fill="#FFFFFF" d="M-1905.642-743.991c0-3.725,2.505-6.541,6.417-6.541c3.872,0,6.375,2.816,6.375,6.541
				c0,3.747-2.504,6.562-6.375,6.562C-1903.136-737.429-1905.642-740.244-1905.642-743.991z M-1894.112-743.991
				c0-3.27-2.048-5.464-5.112-5.464c-3.062,0-5.134,2.215-5.134,5.464c0,3.312,2.05,5.506,5.134,5.506
				C-1896.201-738.484-1894.112-740.719-1894.112-743.991z"/>
			<path fill="#FFFFFF" d="M-1887.27-738.711h2.008v-10.536h-2.008v-1.035h5.733c2.298,0,4.906,0.952,4.906,3.747
				c0,1.905-1.2,3.084-3.022,3.539l2.359,4.285h1.926v1.035h-2.732l-2.753-5.029h-3.167v3.995h2.007v1.035h-5.258V-738.711z
				 M-1881.515-743.721c2.442,0,3.623-1.035,3.623-2.754c0-1.738-1.181-2.773-3.623-2.773h-2.504v5.527H-1881.515z"/>
			<path fill="#FFFFFF" d="M-1870.122-738.711h2.009v-10.536h-2.009v-1.035h5.672c3.666,0,6.626,2.07,6.626,6.312
				c0,4.223-2.96,6.293-6.626,6.293h-5.672V-738.711z M-1864.429-738.711c3.189,0,5.32-1.925,5.32-5.259
				c0-3.352-2.131-5.277-5.32-5.277h-2.441v10.536H-1864.429z"/>
			<path opacity="0.5" fill="#FFFFFF" d="M-1843.032-743.97c0-3.83,2.444-6.562,6.688-6.562c1.696,0,3.29,0.457,4.305,0.952v2.981
				h-1.18v-2.319c-0.829-0.331-2.01-0.538-3.065-0.538c-3.144,0-5.464,1.884-5.464,5.464c0,3.768,2.589,5.486,5.444,5.486
				c1.637,0,3.19-0.56,4.306-1.222v1.18c-0.971,0.559-2.545,1.118-4.39,1.118C-1840.174-737.429-1843.032-739.83-1843.032-743.97z"
				/>
			<path opacity="0.5" fill="#FFFFFF" d="M-1826.15-743.991c0-3.725,2.504-6.541,6.415-6.541c3.873,0,6.377,2.816,6.377,6.541
				c0,3.747-2.504,6.562-6.377,6.562C-1823.646-737.429-1826.15-740.244-1826.15-743.991z M-1814.622-743.991
				c0-3.27-2.049-5.464-5.113-5.464c-3.065,0-5.135,2.215-5.135,5.464c0,3.312,2.05,5.506,5.135,5.506
				C-1816.712-738.484-1814.622-740.719-1814.622-743.991z"/>
			<path opacity="0.5" fill="#FFFFFF" d="M-1806.104-741.796v-7.451h-2.01v-1.035h5.259v1.035h-2.009v7.369
				c0,2.423,1.699,3.333,3.603,3.333c1.946,0,3.517-0.973,3.517-3.333v-7.369h-2.007v-1.035h5.176v1.035h-1.985v7.409
				c0,2.879-1.928,4.41-4.723,4.41C-1804.034-737.429-1806.104-738.899-1806.104-741.796z"/>
			<path opacity="0.5" fill="#FFFFFF" d="M-1789.266-738.711h2.009v-10.536h-2.009v-1.035h3.292l7.595,10.599v-9.564h-2.005v-1.035
				h5.175v1.035h-2.009v11.571h-1.12l-7.739-10.785v9.75h2.006v1.035h-5.194V-738.711z"/>
			<path opacity="0.5" fill="#FFFFFF" d="M-1767.292-738.711h2.131v-10.536h-3.769v2.277h-1.136v-3.312h11.033v3.312h-1.139v-2.277
				h-3.749v10.536h2.113v1.035h-5.485V-738.711z"/>
			<path opacity="0.5" fill="#FFFFFF" d="M-1750.581-738.711h2.028v-3.665l-4.264-6.872h-1.759v-1.035h5.219v1.035h-2.096
				l3.521,5.755l3.52-5.755h-2.07v-1.035h5.154v1.035h-1.759l-4.222,6.831v3.705h2.026v1.035h-5.299V-738.711z"/>
		</g>
	</g>
	<rect x="-1155.07" y="-899.558" fill="#F25749" width="840.141" height="634.721"/>
	<rect x="-1271.404" y="-54.36" fill="#F25749" width="840.141" height="634.721"/>
</g>
<g id="Layer_2">
	<g>
		<path fill="none" stroke="#231F20" stroke-width="4" stroke-linecap="round" stroke-miterlimit="10" d="M1078.584-498.915
			c-5.602,1.616-7.967,5.547-6.728,15.301c1.233,9.702,8.422,16.771,22.933,16.771c14.509,0,23.302-11.317,21.923-23.973
			C1115.336-503.473,1083.184-500.241,1078.584-498.915z"/>
		<path fill="none" stroke="#231F20" stroke-width="4" stroke-linecap="round" stroke-miterlimit="10" d="M1170.773-498.915
			c5.603,1.616,7.967,5.547,6.728,15.301c-1.233,9.702-8.421,16.771-22.933,16.771c-14.509,0-23.302-11.317-21.923-23.973
			C1134.021-503.473,1166.174-500.241,1170.773-498.915z"/>
		<path fill="none" stroke="#231F20" stroke-width="4" stroke-linecap="round" stroke-miterlimit="10" d="M1115.959-493.326
			c0,0,8.926-4.465,17.237,0"/>
	</g>
	<path fill="none" stroke="#231F20" stroke-width="4" stroke-linecap="round" stroke-miterlimit="10" d="M1114.5-462.332
		c0,0,0,6.666,10,6.666s10-6.666,10-6.666"/>
	
		<line fill="none" stroke="#231F20" stroke-width="4" stroke-linecap="round" stroke-miterlimit="10" x1="1112.5" y1="-439" x2="1136.5" y2="-439"/>
	
		<line fill="none" stroke="#231F20" stroke-width="4" stroke-linecap="round" stroke-miterlimit="10" x1="1120.5" y1="-431" x2="1128.5" y2="-431"/>
	<path fill="none" stroke="#231F20" stroke-width="4" stroke-linejoin="round" stroke-miterlimit="10" d="M1068.5-527v-24
		c0,0,0-48,56-48s56,48,56,48v24c0,0-16-16-56-16S1068.5-527,1068.5-527z"/>
	<path fill="none" stroke="#231F20" stroke-width="4.3333" stroke-linejoin="round" stroke-miterlimit="10" d="M1180.166-527.332
		l5,8.666c0,0-26-8.666-60.666-8.666s-60.666,8.666-60.666,8.666l5-8.666"/>
	<circle fill="#231F20" cx="1094.5" cy="-489" r="6"/>
	<circle fill="#231F20" cx="1154.5" cy="-489" r="6"/>
	<path fill="#231F20" d="M1108.5-527l44,17l-4-8h8l-4-8C1152.5-526,1132.5-527,1108.5-527z"/>
	<path fill="#231F20" d="M1112.5-507c0,2.209-1.791,4-4,4h-24c-2.209,0-4-1.791-4-4l0,0c0-2.209,1.791-4,4-4h24
		C1110.709-511,1112.5-509.209,1112.5-507L1112.5-507z"/>
	<path fill="#231F20" d="M1168.5-507c0,2.209-1.791,4-4,4h-24c-2.209,0-4-1.791-4-4l0,0c0-2.209,1.791-4,4-4h24
		C1166.709-511,1168.5-509.209,1168.5-507L1168.5-507z"/>
	<path fill="none" stroke="#231F20" stroke-width="4" stroke-linecap="round" stroke-miterlimit="10" d="M1068.5-519v40
		c0,0,0,27.002,8.829,39.08c11.186,15.301,21.423,33.588,47.171,33.588"/>
	<path fill="none" stroke="#231F20" stroke-width="4" stroke-linecap="round" stroke-miterlimit="10" d="M1180.5-519v40
		c0,0,0,27.002-8.829,39.08c-11.186,15.301-21.423,33.588-47.171,33.588"/>
	<path fill="none" stroke="#231F20" stroke-width="4" stroke-linecap="round" stroke-miterlimit="10" d="M1124.5-406.332"/>
	
		<line fill="none" stroke="#231F20" stroke-width="4" stroke-linecap="round" stroke-miterlimit="10" x1="1180.5" y1="-519" x2="1180.5" y2="-479"/>
	<polygon fill="#231F20" points="1066.332,-519.428 1055.833,-504.998 1063.834,-504.998 1061.082,-497 1068.5,-499 	"/>
	<polygon fill="#231F20" points="1182.668,-519.428 1193.167,-504.998 1185.166,-504.998 1187.918,-497 1180.5,-499 	"/>
	<g>
		
			<line fill="none" stroke="#231F20" stroke-width="3.1623" stroke-linecap="round" stroke-miterlimit="10" x1="1082.833" y1="-442" x2="1082.833" y2="-432"/>
		
			<line fill="none" stroke="#231F20" stroke-width="3.1623" stroke-linecap="round" stroke-miterlimit="10" x1="1089.111" y1="-434" x2="1089.111" y2="-424"/>
		
			<line fill="none" stroke="#231F20" stroke-width="3.1623" stroke-linecap="round" stroke-miterlimit="10" x1="1095.389" y1="-427" x2="1095.389" y2="-417"/>
		
			<line fill="none" stroke="#231F20" stroke-width="3.1623" stroke-linecap="round" stroke-miterlimit="10" x1="1101.666" y1="-422" x2="1101.666" y2="-412"/>
		
			<line fill="none" stroke="#231F20" stroke-width="3.1623" stroke-linecap="round" stroke-miterlimit="10" x1="1107.944" y1="-419" x2="1107.944" y2="-409"/>
		
			<line fill="none" stroke="#231F20" stroke-width="3.1623" stroke-linecap="round" stroke-miterlimit="10" x1="1114.223" y1="-417" x2="1114.223" y2="-407"/>
		
			<line fill="none" stroke="#231F20" stroke-width="3.1623" stroke-linecap="round" stroke-miterlimit="10" x1="1120.5" y1="-417" x2="1120.5" y2="-407"/>
	</g>
	<g>
		
			<line fill="none" stroke="#231F20" stroke-width="3.1623" stroke-linecap="round" stroke-miterlimit="10" x1="1166.167" y1="-442.166" x2="1166.167" y2="-432.166"/>
		
			<line fill="none" stroke="#231F20" stroke-width="3.1623" stroke-linecap="round" stroke-miterlimit="10" x1="1159.889" y1="-434.166" x2="1159.889" y2="-424.166"/>
		
			<line fill="none" stroke="#231F20" stroke-width="3.1623" stroke-linecap="round" stroke-miterlimit="10" x1="1153.611" y1="-427.166" x2="1153.611" y2="-417.166"/>
		
			<line fill="none" stroke="#231F20" stroke-width="3.1623" stroke-linecap="round" stroke-miterlimit="10" x1="1147.334" y1="-422.166" x2="1147.334" y2="-412.166"/>
		
			<line fill="none" stroke="#231F20" stroke-width="3.1623" stroke-linecap="round" stroke-miterlimit="10" x1="1141.056" y1="-419.166" x2="1141.056" y2="-409.166"/>
		
			<line fill="none" stroke="#231F20" stroke-width="3.1623" stroke-linecap="round" stroke-miterlimit="10" x1="1134.777" y1="-417.166" x2="1134.777" y2="-407.166"/>
		
			<line fill="none" stroke="#231F20" stroke-width="3.1623" stroke-linecap="round" stroke-miterlimit="10" x1="1128.5" y1="-417.166" x2="1128.5" y2="-407.166"/>
	</g>
	<path fill="none" stroke="#231F20" stroke-width="2.8571" stroke-linecap="round" stroke-miterlimit="10" d="M1116.5-578.428
		h14.286c0,0,5.714,0,5.714,5.713c0,5.715,0,11.43,0,11.43s0,5.715-5.714,5.715c-5.715,0-14.286,0-14.286,0"/>
	
		<line fill="none" stroke="#231F20" stroke-width="2.8571" stroke-linecap="round" stroke-miterlimit="10" x1="1119.357" y1="-578.428" x2="1119.357" y2="-555.57"/>
	
		<line fill="none" stroke="#231F20" stroke-width="2.8571" stroke-linecap="round" stroke-miterlimit="10" x1="1125.071" y1="-578.428" x2="1125.071" y2="-555.57"/>
	
		<line fill="none" stroke="#231F20" stroke-width="2.8571" stroke-linecap="round" stroke-miterlimit="10" x1="1119.357" y1="-569.857" x2="1116.5" y2="-569.857"/>
	
		<line fill="none" stroke="#231F20" stroke-width="2.8571" stroke-linecap="round" stroke-miterlimit="10" x1="1125.071" y1="-572.715" x2="1119.357" y2="-572.715"/>
	
		<line fill="none" stroke="#231F20" stroke-width="2.8571" stroke-linecap="round" stroke-miterlimit="10" x1="1125.071" y1="-561.285" x2="1119.357" y2="-561.285"/>
	
		<line fill="none" stroke="#231F20" stroke-width="2.8571" stroke-linecap="round" stroke-miterlimit="10" x1="1119.357" y1="-564.143" x2="1116.5" y2="-564.143"/>
	<path fill="none" stroke="#231F20" stroke-width="2.8571" stroke-linecap="round" stroke-miterlimit="10" d="M1125.071-569.857
		c0,0,11.429,0,11.429-2.857"/>
	<path fill="none" stroke="#231F20" stroke-width="2.8571" stroke-linecap="round" stroke-miterlimit="10" d="M1125.071-564.143
		c0,0,11.429,0,11.429,2.857"/>
	<g>
		<g>
			<g>
				<path fill="#333333" d="M-786.375-514.99c-35.001,0-41.61-22.259-42.827-31.829c-2.233-17.573,1.96-26.557,14.021-30.036
					c3.476-1.002,14.393-2.485,26.787-2.485c26.833,0,41.744,6.686,43.12,19.336c1.29,11.836-2.283,23.432-9.802,31.814
					C-762.712-519.678-773.828-514.99-786.375-514.99z M-788.396-572.465c-12.004,0-22.286,1.467-24.881,2.215
					c-5.843,1.687-11.36,4.817-9.105,22.563c2.117,16.651,14.904,25.821,36.007,25.821c10.569,0,19.866-3.876,26.18-10.915
					c6.216-6.931,9.164-16.582,8.085-26.48C-753.407-571.179-777.917-572.465-788.396-572.465z"/>
			</g>
			<g>
				<path fill="#333333" d="M-683.624-514.99c-12.548,0-23.663-4.688-31.297-13.198c-7.52-8.383-11.092-19.979-9.802-31.816
					c1.375-12.649,16.285-19.335,43.119-19.335c12.394,0,23.31,1.483,26.785,2.485c12.061,3.479,16.254,12.462,14.021,30.036
					C-642.014-537.249-648.622-514.99-683.624-514.99z M-681.604-572.465c-10.479,0-34.989,1.286-36.284,13.204
					c-1.079,9.898,1.868,19.55,8.085,26.481c6.312,7.038,15.609,10.914,26.179,10.914c21.103,0,33.89-9.17,36.007-25.821
					c2.255-17.746-3.263-20.877-9.106-22.563C-659.318-570.998-669.601-572.465-681.604-572.465z"/>
			</g>
			<g>
				<path fill="#333333" d="M-749.985-560.508c-1.261,0-2.475-0.696-3.077-1.9c-0.85-1.698-0.162-3.763,1.536-4.612
					c0.692-0.346,17.116-8.375,32.793,0.046c1.673,0.898,2.3,2.982,1.401,4.655c-0.898,1.671-2.982,2.301-4.655,1.401
					c-12.57-6.752-26.326-0.023-26.463,0.046C-748.943-560.625-749.468-560.508-749.985-560.508z"/>
			</g>
		</g>
		<g>
			<path fill="#333333" d="M-735-495.777c-16.315,0-20.626-9.743-20.626-14.896c0-1.898,1.539-3.438,3.438-3.438
				c1.883,0,3.413,1.515,3.438,3.392c0.031,0.865,0.69,8.066,13.751,8.066c13.595,0,13.751-7.693,13.751-8.021
				c0-1.898,1.539-3.438,3.438-3.438s3.438,1.539,3.438,3.438C-714.374-505.521-718.685-495.777-735-495.777z"/>
		</g>
		<g>
			<path fill="#333333" d="M-714.374-467.131h-41.252c-1.898,0-3.438-1.539-3.438-3.438s1.539-3.438,3.438-3.438h41.252
				c1.898,0,3.438,1.539,3.438,3.438S-712.476-467.131-714.374-467.131z"/>
		</g>
		<g>
			<path fill="#333333" d="M-728.125-453.381h-13.75c-1.898,0-3.438-1.539-3.438-3.438s1.539-3.438,3.438-3.438h13.75
				c1.898,0,3.438,1.539,3.438,3.438S-726.227-453.381-728.125-453.381z"/>
		</g>
		<g>
			<path fill="#333333" d="M-831.256-618.388c-0.443,0-0.889-0.086-1.314-0.262c-1.285-0.532-2.122-1.785-2.122-3.176v-41.252
				c0-0.88,0.142-21.799,12.5-42.984c11.432-19.597,35.838-42.958,87.192-42.958c28.345,0,66.481,7.453,87.192,42.958
				c12.358,21.185,12.5,42.104,12.5,42.984v41.252c0,1.391-0.837,2.644-2.122,3.176c-1.282,0.53-2.758,0.239-3.74-0.739
				c-0.324-0.318-27.647-26.5-93.83-26.5c-66.56,0-93.559,26.229-93.824,26.494C-829.482-618.738-830.361-618.388-831.256-618.388z
				 M-735-652.765c52.466,0,81.35,15.636,92.817,23.764v-34.077c-0.001-0.195-0.182-20.167-11.706-39.763
				c-15.339-26.08-42.628-39.303-81.111-39.303c-38.483,0-65.772,13.224-81.111,39.303c-11.524,19.596-11.706,39.568-11.706,39.767
				v34.073C-816.35-637.128-787.467-652.765-735-652.765z"/>
		</g>
		<g>
			<path fill="#333333" d="M-839.274-603.777c-1.098,0-2.165-0.487-2.885-1.369c-0.979-1.198-1.114-2.876-0.341-4.216l8.594-14.896
				l6.451,3.723l-3.973,6.886c16.156-4.32,52.47-12.471,96.428-12.471c43.957,0,80.271,8.151,96.428,12.471l-3.973-6.886
				l6.451-3.722l8.594,14.896c0.772,1.339,0.637,3.017-0.341,4.215c-0.977,1.199-2.592,1.667-4.062,1.179
				c-0.441-0.147-44.868-14.705-103.098-14.705c-58.306,0-102.656,14.557-103.097,14.705
				C-838.484-603.839-838.881-603.777-839.274-603.777z"/>
		</g>
		<g>
			<circle fill="#333333" cx="-786.565" cy="-556.511" r="10.313"/>
		</g>
		<g>
			<circle fill="#333333" cx="-683.435" cy="-556.511" r="10.313"/>
		</g>
		<g>
			<path fill="#333333" d="M-762.501-621.826l75.628,29.22l-6.875-13.75h13.751l-6.876-13.751
				C-686.873-620.107-721.249-621.826-762.501-621.826z"/>
		</g>
		<g>
			<path fill="#333333" d="M-755.626-587.449c0,3.797-3.079,6.875-6.875,6.875h-41.252c-3.797,0-6.875-3.078-6.875-6.875l0,0
				c0-3.797,3.079-6.875,6.875-6.875h41.252C-758.705-594.325-755.626-591.246-755.626-587.449L-755.626-587.449z"/>
		</g>
		<g>
			<path fill="#333333" d="M-659.371-587.449c0,3.797-3.079,6.875-6.876,6.875h-41.252c-3.797,0-6.875-3.078-6.875-6.875l0,0
				c0-3.797,3.078-6.875,6.875-6.875h41.252C-662.45-594.325-659.371-591.246-659.371-587.449L-659.371-587.449z"/>
		</g>
		<g>
			<path fill="#333333" d="M-735-410.98c-41.726,0-61.151-27.303-78.291-51.392c-1.856-2.609-3.703-5.203-5.564-7.75
				c-15.658-21.419-15.838-67.26-15.838-69.2v-68.753c0-1.898,1.539-3.438,3.438-3.438s3.438,1.539,3.438,3.438v68.753
				c0,0.452,0.181,45.537,14.514,65.144c1.878,2.569,3.742,5.188,5.615,7.821c16.966,23.845,34.509,48.502,72.688,48.502
				c1.898,0,3.438,1.539,3.438,3.438S-733.102-410.98-735-410.98z"/>
		</g>
		<g>
			<path fill="#333333" d="M-735-410.98c-1.898,0-3.438-1.539-3.438-3.438s1.539-3.438,3.438-3.438
				c38.179,0,55.722-24.656,72.688-48.501c1.874-2.634,3.737-5.253,5.616-7.822c14.333-19.606,14.514-64.691,14.514-65.145v-68.752
				c0-1.898,1.539-3.438,3.438-3.438s3.438,1.539,3.438,3.438v68.753c0,1.94-0.18,47.781-15.838,69.2
				c-1.862,2.547-3.708,5.142-5.564,7.752C-673.85-438.282-693.275-410.98-735-410.98z"/>
		</g>
		<g>
			<path fill="#333333" stroke="#231F20" stroke-width="6.8753" stroke-linecap="round" stroke-miterlimit="10" d="M-735-414.418"/>
		</g>
		<g>
			<path fill="#333333" d="M-638.745-535.885c-1.898,0-3.438-1.539-3.438-3.438v-68.753c0-1.898,1.539-3.438,3.438-3.438
				s3.438,1.539,3.438,3.438v68.753C-635.308-537.424-636.847-535.885-638.745-535.885z"/>
		</g>
		<g>
			<polygon fill="#333333" points="-834.981,-608.811 -853.027,-584.008 -839.275,-584.008 -844.005,-570.261 -831.255,-573.699 			
				"/>
		</g>
		<g>
			<polygon fill="#333333" points="-635.019,-608.811 -616.973,-584.008 -630.726,-584.008 -625.995,-570.261 -638.745,-573.699 			
				"/>
		</g>
		<g>
			<g>
				<path fill="#333333" d="M-806.619-455.819c-1.501,0-2.718-1.217-2.718-2.718v-17.188c0-1.501,1.217-2.718,2.718-2.718
					s2.718,1.217,2.718,2.718v17.188C-803.901-457.036-805.118-455.819-806.619-455.819z"/>
			</g>
			<g>
				<path fill="#333333" d="M-795.827-442.068c-1.501,0-2.718-1.217-2.718-2.718v-17.188c0-1.501,1.217-2.718,2.718-2.718
					s2.718,1.217,2.718,2.718v17.188C-793.109-443.285-794.326-442.068-795.827-442.068z"/>
			</g>
			<g>
				<path fill="#333333" d="M-785.038-430.037c-1.501,0-2.718-1.217-2.718-2.718v-17.188c0-1.501,1.217-2.718,2.718-2.718
					s2.718,1.217,2.718,2.718v17.188C-782.32-431.254-783.537-430.037-785.038-430.037z"/>
			</g>
			<g>
				<path fill="#333333" d="M-774.248-421.442c-1.501,0-2.718-1.217-2.718-2.718v-17.188c0-1.501,1.217-2.718,2.718-2.718
					s2.718,1.217,2.718,2.718v17.188C-771.53-422.659-772.747-421.442-774.248-421.442z"/>
			</g>
			<g>
				<path fill="#333333" d="M-763.457-416.286c-1.501,0-2.718-1.217-2.718-2.718v-17.188c0-1.501,1.217-2.718,2.718-2.718
					s2.718,1.217,2.718,2.718v17.188C-760.739-417.503-761.956-416.286-763.457-416.286z"/>
			</g>
			<g>
				<path fill="#333333" d="M-752.665-412.849c-1.501,0-2.718-1.217-2.718-2.718v-17.188c0-1.501,1.217-2.718,2.718-2.718
					s2.718,1.217,2.718,2.718v17.188C-749.947-414.065-751.164-412.849-752.665-412.849z"/>
			</g>
			<g>
				<path fill="#333333" d="M-741.875-412.849c-1.501,0-2.718-1.217-2.718-2.718v-17.188c0-1.501,1.217-2.718,2.718-2.718
					s2.718,1.217,2.718,2.718v17.188C-739.158-414.065-740.375-412.849-741.875-412.849z"/>
			</g>
		</g>
		<g>
			<g>
				<path fill="#333333" d="M-663.382-456.104c-1.501,0-2.718-1.217-2.718-2.718v-17.188c0-1.501,1.217-2.718,2.718-2.718
					s2.718,1.217,2.718,2.718v17.188C-660.664-457.321-661.881-456.104-663.382-456.104z"/>
			</g>
			<g>
				<path fill="#333333" d="M-674.173-442.354c-1.501,0-2.718-1.217-2.718-2.718v-17.188c0-1.501,1.217-2.718,2.718-2.718
					s2.718,1.217,2.718,2.718v17.188C-671.455-443.57-672.672-442.354-674.173-442.354z"/>
			</g>
			<g>
				<path fill="#333333" d="M-684.963-430.322c-1.501,0-2.718-1.217-2.718-2.718v-17.188c0-1.501,1.217-2.718,2.718-2.718
					s2.718,1.217,2.718,2.718v17.188C-682.245-431.539-683.462-430.322-684.963-430.322z"/>
			</g>
			<g>
				<path fill="#333333" d="M-695.752-421.728c-1.501,0-2.718-1.217-2.718-2.718v-17.188c0-1.501,1.217-2.718,2.718-2.718
					s2.718,1.217,2.718,2.718v17.188C-693.034-422.944-694.251-421.728-695.752-421.728z"/>
			</g>
			<g>
				<path fill="#333333" d="M-706.544-416.571c-1.501,0-2.718-1.217-2.718-2.718v-17.188c0-1.501,1.217-2.718,2.718-2.718
					s2.718,1.217,2.718,2.718v17.188C-703.826-417.788-705.043-416.571-706.544-416.571z"/>
			</g>
			<g>
				<path fill="#333333" d="M-717.335-413.134c-1.501,0-2.718-1.217-2.718-2.718v-17.188c0-1.501,1.217-2.718,2.718-2.718
					s2.718,1.217,2.718,2.718v17.188C-714.617-414.351-715.834-413.134-717.335-413.134z"/>
			</g>
			<g>
				<path fill="#333333" d="M-728.125-413.134c-1.501,0-2.718-1.217-2.718-2.718v-17.188c0-1.501,1.217-2.718,2.718-2.718
					s2.718,1.217,2.718,2.718v17.188C-725.407-414.351-726.624-413.134-728.125-413.134z"/>
			</g>
		</g>
		<g>
			<path fill="#333333" d="M-724.195-668.478h-24.555c-1.356,0-2.456-1.1-2.456-2.456s1.1-2.456,2.456-2.456h24.555
				c6.931,0,7.352-6.148,7.366-7.381v-19.632c0-6.929-6.147-7.35-7.38-7.364h-24.542c-1.356,0-2.456-1.1-2.456-2.456
				s1.1-2.456,2.456-2.456h24.555c0.311,0,3.118,0.042,6.009,1.487c4.042,2.021,6.268,5.852,6.268,10.788v19.646
				c0,0.311-0.041,3.119-1.486,6.009C-715.427-670.705-719.258-668.478-724.195-668.478z"/>
		</g>
		<g>
			<path fill="#333333" d="M-743.839-668.478c-1.356,0-2.456-1.1-2.456-2.456v-39.288c0-1.356,1.1-2.456,2.456-2.456
				s2.456,1.1,2.456,2.456v39.288C-741.384-669.578-742.483-668.478-743.839-668.478z"/>
		</g>
		<g>
			<path fill="#333333" d="M-734.018-668.478c-1.356,0-2.456-1.1-2.456-2.456v-39.288c0-1.356,1.1-2.456,2.456-2.456
				s2.456,1.1,2.456,2.456v39.288C-731.562-669.578-732.662-668.478-734.018-668.478z"/>
		</g>
		<g>
			<path fill="#333333" d="M-743.839-693.035h-4.911c-1.356,0-2.456-1.1-2.456-2.456s1.1-2.456,2.456-2.456h4.911
				c1.356,0,2.456,1.1,2.456,2.456S-742.483-693.035-743.839-693.035z"/>
		</g>
		<g>
			<path fill="#333333" d="M-734.018-697.947h-9.821c-1.356,0-2.456-1.1-2.456-2.456s1.1-2.456,2.456-2.456h9.821
				c1.356,0,2.456,1.1,2.456,2.456S-732.662-697.947-734.018-697.947z"/>
		</g>
		<g>
			<path fill="#333333" d="M-734.018-678.301h-9.821c-1.356,0-2.456-1.1-2.456-2.456s1.1-2.456,2.456-2.456h9.821
				c1.356,0,2.456,1.1,2.456,2.456S-732.662-678.301-734.018-678.301z"/>
		</g>
		<g>
			<path fill="#333333" d="M-743.839-683.212h-4.911c-1.356,0-2.456-1.1-2.456-2.456s1.1-2.456,2.456-2.456h4.911
				c1.356,0,2.456,1.1,2.456,2.456S-742.483-683.212-743.839-683.212z"/>
		</g>
		<g>
			<path fill="#333333" d="M-734.018-693.035c-1.356,0-2.455-1.099-2.455-2.455c0-1.356,1.099-2.456,2.455-2.456
				c7.826-0.002,15.888-1.271,17.199-2.684c0.115-1.249,1.166-2.228,2.445-2.228c1.356,0,2.455,1.1,2.455,2.456
				C-711.919-697.042-715.753-693.035-734.018-693.035z"/>
		</g>
		<g>
			<path fill="#333333" d="M-714.374-678.301c-1.279,0-2.33-0.979-2.445-2.228c-1.312-1.416-9.374-2.684-17.199-2.684
				c-1.356,0-2.456-1.1-2.456-2.456s1.1-2.456,2.456-2.456c18.265,0,22.099,4.006,22.099,7.367
				C-711.919-679.4-713.018-678.301-714.374-678.301z"/>
		</g>
	</g>
	<g>
		<g>
			<path fill="#333333" d="M-996.103,350.247c-0.665,0-1.336-0.13-1.977-0.394c-1.931-0.799-3.192-2.686-3.192-4.776v-62.043
				c0-1.325,0.215-32.786,18.8-64.649c17.193-29.473,53.902-64.607,131.138-64.607c42.631,0,99.989,11.209,131.138,64.607
				c18.588,31.863,18.8,63.324,18.8,64.649v62.043c0,2.091-1.259,3.978-3.191,4.776c-1.928,0.797-4.148,0.359-5.626-1.111
				c-0.487-0.479-41.582-39.856-141.121-39.856c-100.106,0-140.712,39.448-141.112,39.847
				C-993.434,349.721-994.755,350.247-996.103,350.247z M-851.333,298.545c78.909,0,122.35,23.517,139.598,35.741v-51.252
				c-0.001-0.295-0.272-30.333-17.606-59.806c-23.069-39.223-64.112-59.11-121.992-59.11c-57.877,0-98.922,19.888-121.992,59.11
				c-17.333,29.473-17.604,59.511-17.605,59.811v51.247C-973.684,322.062-930.244,298.545-851.333,298.545z"/>
		</g>
		<g>
			<path fill="#333333" d="M-1008.163,372.223c-1.651,0-3.256-0.731-4.339-2.06c-1.471-1.803-1.676-4.326-0.512-6.342l12.925-22.401
				l9.703,5.599l-5.975,10.355c24.299-6.497,78.917-18.757,145.028-18.757c66.112,0,120.729,12.26,145.029,18.757l-5.976-10.356
				l9.703-5.598l12.925,22.402c1.161,2.015,0.958,4.537-0.513,6.34c-1.469,1.802-3.897,2.506-6.108,1.772
				c-0.664-0.22-67.483-22.114-155.06-22.114c-87.692,0-154.395,21.895-155.058,22.114
				C-1006.973,372.128-1007.571,372.223-1008.163,372.223z"/>
		</g>
		<g>
			<path fill="#333333" d="M-835.083,274.911h-36.93c-2.04,0-3.694-1.653-3.694-3.692c0-2.038,1.654-3.691,3.694-3.691h36.93
				c10.424,0,11.057-9.248,11.08-11.102v-29.527c0-10.422-9.246-11.054-11.1-11.074h-36.91c-2.04,0-3.694-1.654-3.694-3.694
				s1.654-3.694,3.694-3.694h36.93c0.468,0,4.69,0.065,9.038,2.237c6.079,3.039,9.426,8.802,9.426,16.226v29.548
				c0,0.467-0.061,4.689-2.235,9.037C-821.895,271.562-827.657,274.911-835.083,274.911z"/>
		</g>
		<g>
			<path fill="#333333" d="M-864.627,274.911c-2.041,0-3.694-1.653-3.694-3.692V212.13c0-2.04,1.654-3.694,3.694-3.694
				c2.038,0,3.692,1.654,3.692,3.694v59.089C-860.935,273.258-862.589,274.911-864.627,274.911z"/>
		</g>
		<g>
			<path fill="#333333" d="M-849.856,274.911c-2.04,0-3.694-1.653-3.694-3.692V212.13c0-2.04,1.654-3.694,3.694-3.694
				c2.039,0,3.693,1.654,3.693,3.694v59.089C-846.163,273.258-847.817,274.911-849.856,274.911z"/>
		</g>
		<g>
			<path fill="#333333" d="M-864.627,237.979h-7.387c-2.04,0-3.694-1.654-3.694-3.692c0-2.04,1.654-3.694,3.694-3.694h7.387
				c2.038,0,3.692,1.654,3.692,3.694C-860.935,236.324-862.589,237.979-864.627,237.979z"/>
		</g>
		<g>
			<path fill="#333333" d="M-849.856,230.591h-14.771c-2.041,0-3.694-1.654-3.694-3.692c0-2.039,1.654-3.693,3.694-3.693h14.771
				c2.039,0,3.693,1.654,3.693,3.693C-846.163,228.937-847.817,230.591-849.856,230.591z"/>
		</g>
		<g>
			<path fill="#333333" d="M-849.856,260.14h-14.771c-2.041,0-3.694-1.654-3.694-3.693c0-2.04,1.654-3.693,3.694-3.693h14.771
				c2.039,0,3.693,1.653,3.693,3.693C-846.163,258.485-847.817,260.14-849.856,260.14z"/>
		</g>
		<g>
			<path fill="#333333" d="M-864.627,252.75h-7.387c-2.04,0-3.694-1.652-3.694-3.691s1.654-3.692,3.694-3.692h7.387
				c2.038,0,3.692,1.653,3.692,3.692S-862.589,252.75-864.627,252.75z"/>
		</g>
		<g>
			<path fill="#333333" d="M-849.856,237.979c-2.04,0-3.692-1.654-3.692-3.692c-0.002-2.039,1.652-3.693,3.691-3.694
				c11.77-0.005,23.895-1.911,25.868-4.037c0.173-1.878,1.753-3.35,3.677-3.35c2.04,0,3.692,1.654,3.692,3.693
				C-816.62,231.953-822.385,237.979-849.856,237.979z"/>
		</g>
		<g>
			<path fill="#333333" d="M-820.312,260.14c-1.924,0-3.504-1.473-3.677-3.351c-1.974-2.13-14.099-4.039-25.867-4.039
				c-2.04,0-3.694-1.652-3.694-3.691s1.654-3.692,3.694-3.692c27.471,0,33.236,6.024,33.236,11.08
				C-816.62,258.485-818.272,260.14-820.312,260.14z"/>
		</g>
	</g>
	<g>
		<g>
			<g>
				<path d="M-1525.709,328.01c-35.002,0-41.61-22.259-42.827-31.829c-2.233-17.573,1.96-26.557,14.021-30.036
					c3.476-1.002,14.393-2.484,26.786-2.484c26.834,0,41.744,6.686,43.12,19.336c1.289,11.836-2.283,23.432-9.802,31.814
					C-1502.046,323.322-1513.161,328.01-1525.709,328.01z M-1527.729,270.535c-12.004,0-22.285,1.467-24.881,2.215
					c-5.844,1.687-11.36,4.817-9.105,22.563c2.117,16.651,14.904,25.821,36.007,25.821c10.568,0,19.866-3.876,26.18-10.915
					c6.216-6.931,9.163-16.582,8.085-26.48C-1492.74,271.821-1517.251,270.535-1527.729,270.535z"/>
			</g>
			<g>
				<path d="M-1422.958,328.01c-12.548,0-23.663-4.688-31.297-13.198c-7.52-8.383-11.092-19.979-9.802-31.816
					c1.375-12.649,16.285-19.335,43.119-19.335c12.394,0,23.31,1.482,26.785,2.484c12.061,3.479,16.254,12.462,14.021,30.036
					C-1381.348,305.751-1387.956,328.01-1422.958,328.01z M-1420.938,270.535c-10.479,0-34.989,1.286-36.284,13.204
					c-1.079,9.898,1.868,19.55,8.085,26.481c6.312,7.038,15.609,10.914,26.179,10.914c21.103,0,33.89-9.17,36.007-25.821
					c2.255-17.746-3.263-20.877-9.106-22.563C-1398.652,272.002-1408.935,270.535-1420.938,270.535z"/>
			</g>
			<g>
				<path d="M-1489.319,282.492c-1.261,0-2.475-0.696-3.076-1.9c-0.85-1.698-0.162-3.763,1.536-4.612
					c0.691-0.346,17.115-8.375,32.793,0.046c1.673,0.898,2.3,2.982,1.401,4.655c-0.898,1.671-2.982,2.301-4.655,1.401
					c-12.57-6.752-26.326-0.023-26.463,0.046C-1488.277,282.375-1488.802,282.492-1489.319,282.492z"/>
			</g>
		</g>
		<g>
			<path d="M-1474.334,347.223c-16.315,0-20.626-9.743-20.626-14.896c0-1.898,1.539-3.438,3.438-3.438
				c1.884,0,3.413,1.515,3.438,3.392c0.031,0.865,0.69,8.066,13.751,8.066c13.595,0,13.751-7.693,13.751-8.021
				c0-1.898,1.539-3.438,3.438-3.438s3.438,1.539,3.438,3.438C-1453.708,337.479-1458.019,347.223-1474.334,347.223z"/>
		</g>
		<g>
			<path d="M-1453.708,375.869h-41.252c-1.898,0-3.438-1.539-3.438-3.438s1.539-3.438,3.438-3.438h41.252
				c1.898,0,3.438,1.539,3.438,3.438S-1451.81,375.869-1453.708,375.869z"/>
		</g>
		<g>
			<path d="M-1467.459,389.619h-13.75c-1.898,0-3.438-1.539-3.438-3.438s1.539-3.438,3.438-3.438h13.75
				c1.898,0,3.438,1.539,3.438,3.438S-1465.561,389.619-1467.459,389.619z"/>
		</g>
		<g>
			<path d="M-1570.59,224.611c-0.442,0-0.889-0.086-1.314-0.262c-1.284-0.531-2.122-1.785-2.122-3.176v-41.252
				c0-0.881,0.143-21.799,12.5-42.984c11.432-19.597,35.839-42.957,87.192-42.957c28.345,0,66.481,7.453,87.192,42.957
				c12.358,21.186,12.5,42.104,12.5,42.984v41.252c0,1.391-0.837,2.645-2.122,3.176c-1.282,0.53-2.758,0.239-3.74-0.738
				c-0.324-0.318-27.647-26.501-93.83-26.501c-66.56,0-93.559,26.229-93.824,26.494
				C-1568.815,224.262-1569.694,224.611-1570.59,224.611z M-1474.334,190.235c52.466,0,81.35,15.636,92.817,23.764v-34.077
				c-0.001-0.195-0.182-20.168-11.706-39.764c-15.339-26.079-42.628-39.303-81.111-39.303c-38.482,0-65.772,13.224-81.111,39.303
				c-11.524,19.596-11.705,39.568-11.706,39.768v34.073C-1555.684,205.871-1526.801,190.235-1474.334,190.235z"/>
		</g>
		<g>
			<path d="M-1578.608,239.223c-1.098,0-2.165-0.486-2.885-1.369c-0.979-1.198-1.114-2.877-0.341-4.217l8.594-14.895l6.451,3.723
				l-3.973,6.885c16.156-4.319,52.471-12.471,96.428-12.471s80.271,8.151,96.428,12.471l-3.973-6.886l6.451-3.722l8.594,14.896
				c0.772,1.339,0.637,3.017-0.341,4.215c-0.977,1.198-2.592,1.667-4.062,1.179c-0.441-0.146-44.868-14.704-103.098-14.704
				c-58.306,0-102.656,14.558-103.097,14.704C-1577.817,239.16-1578.215,239.223-1578.608,239.223z"/>
		</g>
		<g>
			<circle cx="-1525.899" cy="286.489" r="10.313"/>
		</g>
		<g>
			<circle cx="-1422.769" cy="286.489" r="10.313"/>
		</g>
		<g>
			<path d="M-1501.835,221.174l75.628,29.221l-6.875-13.751h13.751l-6.876-13.751
				C-1426.207,222.893-1460.583,221.174-1501.835,221.174z"/>
		</g>
		<g>
			<path d="M-1494.96,255.551c0,3.797-3.078,6.875-6.875,6.875h-41.252c-3.797,0-6.876-3.078-6.876-6.875l0,0
				c0-3.797,3.079-6.875,6.876-6.875h41.252C-1498.038,248.676-1494.96,251.754-1494.96,255.551L-1494.96,255.551z"/>
		</g>
		<g>
			<path d="M-1398.705,255.551c0,3.797-3.079,6.875-6.876,6.875h-41.252c-3.797,0-6.875-3.078-6.875-6.875l0,0
				c0-3.797,3.078-6.875,6.875-6.875h41.252C-1401.784,248.676-1398.705,251.754-1398.705,255.551L-1398.705,255.551z"/>
		</g>
		<g>
			<path d="M-1474.334,432.02c-41.726,0-61.151-27.303-78.29-51.392c-1.856-2.609-3.703-5.203-5.564-7.75
				c-15.658-21.419-15.838-67.26-15.838-69.2v-68.753c0-1.898,1.539-3.438,3.438-3.438s3.438,1.539,3.438,3.438v68.753
				c0.001,0.452,0.182,45.537,14.514,65.144c1.879,2.569,3.742,5.188,5.615,7.821c16.966,23.845,34.51,48.502,72.688,48.502
				c1.898,0,3.438,1.539,3.438,3.438S-1472.436,432.02-1474.334,432.02z"/>
		</g>
		<g>
			<path d="M-1474.334,432.02c-1.898,0-3.438-1.539-3.438-3.438s1.539-3.438,3.438-3.438c38.179,0,55.722-24.656,72.688-48.501
				c1.874-2.634,3.737-5.253,5.616-7.822c14.333-19.606,14.514-64.691,14.514-65.145v-68.752c0-1.898,1.539-3.438,3.438-3.438
				s3.438,1.539,3.438,3.438v68.753c0,1.94-0.18,47.781-15.838,69.2c-1.862,2.547-3.708,5.142-5.564,7.752
				C-1413.184,404.718-1432.609,432.02-1474.334,432.02z"/>
		</g>
		<g>
			<path stroke="#231F20" stroke-width="6.8753" stroke-linecap="round" stroke-miterlimit="10" d="M-1474.334,428.582"/>
		</g>
		<g>
			<path d="M-1378.079,307.115c-1.898,0-3.438-1.539-3.438-3.438v-68.753c0-1.898,1.539-3.438,3.438-3.438s3.438,1.539,3.438,3.438
				v68.753C-1374.642,305.576-1376.181,307.115-1378.079,307.115z"/>
		</g>
		<g>
			<polygon points="-1574.314,234.189 -1592.361,258.992 -1578.608,258.992 -1583.339,272.739 -1570.589,269.301 			"/>
		</g>
		<g>
			<polygon points="-1374.353,234.189 -1356.307,258.992 -1370.06,258.992 -1365.329,272.739 -1378.079,269.301 			"/>
		</g>
		<g>
			<g>
				<path d="M-1545.952,387.181c-1.501,0-2.718-1.217-2.718-2.718v-17.188c0-1.501,1.217-2.718,2.718-2.718s2.718,1.217,2.718,2.718
					v17.188C-1543.234,385.964-1544.451,387.181-1545.952,387.181z"/>
			</g>
			<g>
				<path d="M-1535.161,400.932c-1.501,0-2.718-1.217-2.718-2.718v-17.188c0-1.501,1.217-2.718,2.718-2.718s2.718,1.217,2.718,2.718
					v17.188C-1532.443,399.715-1533.66,400.932-1535.161,400.932z"/>
			</g>
			<g>
				<path d="M-1524.371,412.963c-1.501,0-2.718-1.217-2.718-2.718v-17.188c0-1.501,1.217-2.718,2.718-2.718s2.718,1.217,2.718,2.718
					v17.188C-1521.653,411.746-1522.87,412.963-1524.371,412.963z"/>
			</g>
			<g>
				<path d="M-1513.582,421.558c-1.501,0-2.718-1.217-2.718-2.718v-17.188c0-1.501,1.217-2.718,2.718-2.718s2.718,1.217,2.718,2.718
					v17.188C-1510.864,420.341-1512.081,421.558-1513.582,421.558z"/>
			</g>
			<g>
				<path d="M-1502.79,426.714c-1.501,0-2.718-1.217-2.718-2.718v-17.188c0-1.501,1.217-2.718,2.718-2.718s2.718,1.217,2.718,2.718
					v17.188C-1500.072,425.497-1501.289,426.714-1502.79,426.714z"/>
			</g>
			<g>
				<path d="M-1491.999,430.151c-1.501,0-2.718-1.217-2.718-2.718v-17.188c0-1.501,1.217-2.718,2.718-2.718s2.718,1.217,2.718,2.718
					v17.188C-1489.281,428.935-1490.498,430.151-1491.999,430.151z"/>
			</g>
			<g>
				<path d="M-1481.209,430.151c-1.501,0-2.718-1.217-2.718-2.718v-17.188c0-1.501,1.217-2.718,2.718-2.718s2.718,1.217,2.718,2.718
					v17.188C-1478.491,428.935-1479.708,430.151-1481.209,430.151z"/>
			</g>
		</g>
		<g>
			<g>
				<path d="M-1402.716,386.896c-1.501,0-2.718-1.217-2.718-2.718v-17.188c0-1.501,1.217-2.718,2.718-2.718s2.718,1.217,2.718,2.718
					v17.188C-1399.998,385.679-1401.215,386.896-1402.716,386.896z"/>
			</g>
			<g>
				<path d="M-1413.507,400.646c-1.501,0-2.718-1.217-2.718-2.718V380.74c0-1.501,1.217-2.718,2.718-2.718s2.718,1.217,2.718,2.718
					v17.188C-1410.789,399.43-1412.006,400.646-1413.507,400.646z"/>
			</g>
			<g>
				<path d="M-1424.297,412.678c-1.501,0-2.718-1.217-2.718-2.718v-17.188c0-1.501,1.217-2.718,2.718-2.718s2.718,1.217,2.718,2.718
					v17.188C-1421.579,411.461-1422.796,412.678-1424.297,412.678z"/>
			</g>
			<g>
				<path d="M-1435.086,421.272c-1.501,0-2.718-1.217-2.718-2.718v-17.188c0-1.501,1.217-2.718,2.718-2.718s2.718,1.217,2.718,2.718
					v17.188C-1432.368,420.056-1433.585,421.272-1435.086,421.272z"/>
			</g>
			<g>
				<path d="M-1445.878,426.429c-1.501,0-2.718-1.217-2.718-2.718v-17.188c0-1.501,1.217-2.718,2.718-2.718s2.718,1.217,2.718,2.718
					v17.188C-1443.16,425.212-1444.377,426.429-1445.878,426.429z"/>
			</g>
			<g>
				<path d="M-1456.669,429.866c-1.501,0-2.718-1.217-2.718-2.718V409.96c0-1.501,1.217-2.718,2.718-2.718s2.718,1.217,2.718,2.718
					v17.188C-1453.951,428.649-1455.168,429.866-1456.669,429.866z"/>
			</g>
			<g>
				<path d="M-1467.459,429.866c-1.501,0-2.718-1.217-2.718-2.718V409.96c0-1.501,1.217-2.718,2.718-2.718s2.718,1.217,2.718,2.718
					v17.188C-1464.741,428.649-1465.958,429.866-1467.459,429.866z"/>
			</g>
		</g>
		<g>
			<path d="M-1463.529,174.521h-24.555c-1.356,0-2.456-1.1-2.456-2.455s1.1-2.455,2.456-2.455h24.555
				c6.931,0,7.352-6.148,7.366-7.381v-19.633c0-6.929-6.147-7.35-7.38-7.363h-24.541c-1.356,0-2.456-1.1-2.456-2.456
				s1.1-2.456,2.456-2.456h24.555c0.311,0,3.118,0.043,6.009,1.487c4.042,2.021,6.268,5.853,6.268,10.788v19.646
				c0,0.311-0.041,3.118-1.486,6.009C-1454.761,172.295-1458.592,174.521-1463.529,174.521z"/>
		</g>
		<g>
			<path d="M-1483.173,174.521c-1.356,0-2.456-1.1-2.456-2.455v-39.288c0-1.356,1.1-2.456,2.456-2.456
				c1.355,0,2.455,1.1,2.455,2.456v39.288C-1480.718,173.422-1481.817,174.521-1483.173,174.521z"/>
		</g>
		<g>
			<path d="M-1473.352,174.521c-1.356,0-2.456-1.1-2.456-2.455v-39.288c0-1.356,1.1-2.456,2.456-2.456
				c1.355,0,2.455,1.1,2.455,2.456v39.288C-1470.896,173.422-1471.996,174.521-1473.352,174.521z"/>
		</g>
		<g>
			<path d="M-1483.173,149.965h-4.911c-1.356,0-2.456-1.1-2.456-2.455c0-1.356,1.1-2.456,2.456-2.456h4.911
				c1.355,0,2.455,1.1,2.455,2.456C-1480.718,148.865-1481.817,149.965-1483.173,149.965z"/>
		</g>
		<g>
			<path d="M-1473.352,145.053h-9.821c-1.356,0-2.456-1.1-2.456-2.455s1.1-2.455,2.456-2.455h9.821c1.355,0,2.455,1.1,2.455,2.455
				S-1471.996,145.053-1473.352,145.053z"/>
		</g>
		<g>
			<path d="M-1473.352,164.699h-9.821c-1.356,0-2.456-1.1-2.456-2.455c0-1.356,1.1-2.456,2.456-2.456h9.821
				c1.355,0,2.455,1.1,2.455,2.456C-1470.896,163.6-1471.996,164.699-1473.352,164.699z"/>
		</g>
		<g>
			<path d="M-1483.173,159.787h-4.911c-1.356,0-2.456-1.1-2.456-2.455s1.1-2.455,2.456-2.455h4.911c1.355,0,2.455,1.1,2.455,2.455
				S-1481.817,159.787-1483.173,159.787z"/>
		</g>
		<g>
			<path d="M-1473.352,149.965c-1.356,0-2.455-1.1-2.455-2.455c-0.001-1.355,1.099-2.455,2.454-2.456
				c7.826-0.003,15.888-1.271,17.199-2.685c0.115-1.248,1.166-2.227,2.445-2.227c1.356,0,2.455,1.1,2.455,2.455
				C-1451.253,145.959-1455.087,149.965-1473.352,149.965z"/>
		</g>
		<g>
			<path d="M-1453.708,164.699c-1.279,0-2.33-0.979-2.445-2.228c-1.312-1.416-9.374-2.685-17.198-2.685
				c-1.356,0-2.456-1.1-2.456-2.455s1.1-2.455,2.456-2.455c18.265,0,22.099,4.006,22.099,7.367
				C-1451.253,163.6-1452.352,164.699-1453.708,164.699z"/>
		</g>
	</g>
	
		<line fill="none" stroke="#231F20" stroke-width="3.1623" stroke-linecap="round" stroke-miterlimit="10" x1="1117.929" y1="-450.136" x2="1117.929" y2="-446.352"/>
	
		<line fill="none" stroke="#231F20" stroke-width="3.1623" stroke-linecap="round" stroke-miterlimit="10" x1="1111.929" y1="-449.136" x2="1111.929" y2="-445.352"/>
	
		<line fill="none" stroke="#231F20" stroke-width="3.1623" stroke-linecap="round" stroke-miterlimit="10" x1="1105.929" y1="-448.136" x2="1105.929" y2="-444.352"/>
	
		<line fill="none" stroke="#231F20" stroke-width="3.1623" stroke-linecap="round" stroke-miterlimit="10" x1="1099.929" y1="-446.136" x2="1099.929" y2="-442.352"/>
	
		<line fill="none" stroke="#231F20" stroke-width="3.1623" stroke-linecap="round" stroke-miterlimit="10" x1="1130.777" y1="-450.136" x2="1130.777" y2="-446.352"/>
	
		<line fill="none" stroke="#231F20" stroke-width="3.1623" stroke-linecap="round" stroke-miterlimit="10" x1="1136.777" y1="-449.136" x2="1136.777" y2="-445.352"/>
	
		<line fill="none" stroke="#231F20" stroke-width="3.1623" stroke-linecap="round" stroke-miterlimit="10" x1="1142.777" y1="-448.136" x2="1142.777" y2="-444.352"/>
	
		<line fill="none" stroke="#231F20" stroke-width="3.1623" stroke-linecap="round" stroke-miterlimit="10" x1="1148.777" y1="-446.136" x2="1148.777" y2="-442.352"/>
	<g>
		<g>
			<g>
				<path fill="#333333" d="M-23.561-513.389c-34.882,0-41.468-22.183-42.68-31.721c-2.227-17.513,1.952-26.464,13.972-29.934
					c3.466-0.998,14.344-2.475,26.692-2.475c26.743,0,41.604,6.663,42.973,19.27c1.286,11.794-2.273,23.352-9.767,31.705
					C0.021-518.06-11.055-513.389-23.561-513.389z M-25.576-570.666c-11.961,0-22.207,1.461-24.795,2.207
					c-5.822,1.681-11.32,4.802-9.072,22.486c2.108,16.594,14.853,25.733,35.883,25.733c10.533,0,19.798-3.863,26.09-10.878
					c6.195-6.908,9.132-16.525,8.057-26.39C9.296-569.384-15.134-570.666-25.576-570.666z"/>
			</g>
			<g>
				<path fill="#333333" d="M78.838-513.389c-12.503,0-23.58-4.671-31.188-13.153c-7.493-8.354-11.055-19.911-9.77-31.707
					c1.371-12.605,16.23-19.269,42.975-19.269c12.349,0,23.229,1.477,26.692,2.474c12.019,3.47,16.197,12.421,13.974,29.935
					C120.308-535.571,113.721-513.389,78.838-513.389z M80.854-570.666c-10.442,0-34.871,1.282-36.164,13.158
					c-1.073,9.865,1.864,19.484,8.06,26.392c6.292,7.014,15.557,10.877,26.088,10.877c21.03,0,33.775-9.14,35.885-25.733
					c2.246-17.686-3.252-20.806-9.075-22.487C103.062-569.205,92.815-570.666,80.854-570.666z"/>
			</g>
			<g>
				<path fill="#333333" d="M42.228-558.75c-0.548,0-1.103-0.133-1.619-0.409c-12.441-6.683-26.243-0.019-26.381,0.05
					c-1.693,0.836-3.75,0.147-4.59-1.545c-0.84-1.691-0.156-3.742,1.532-4.587c0.689-0.346,17.059-8.344,32.682,0.046
					c1.666,0.896,2.292,2.973,1.396,4.64C44.63-559.404,43.448-558.75,42.228-558.75z"/>
			</g>
		</g>
		<g>
			<path fill="#333333" d="M27.333-494.241c-16.26,0-20.557-9.709-20.557-14.844c0-1.893,1.534-3.426,3.427-3.426
				c1.877,0,3.4,1.509,3.426,3.38c0.03,0.862,0.688,8.038,13.704,8.038c13.058,0,13.676-7.223,13.704-8.047
				c0-1.892,1.533-3.398,3.425-3.398c1.893,0,3.426,1.561,3.426,3.453C47.888-503.95,43.591-494.241,27.333-494.241z"/>
		</g>
		<g>
			<path fill="#333333" d="M47.889-465.693H6.777c-1.892,0-3.425-1.534-3.425-3.426c0-1.893,1.533-3.426,3.425-3.426h41.111
				c1.893,0,3.427,1.533,3.427,3.426C51.315-467.228,49.781-465.693,47.889-465.693z"/>
		</g>
		<g>
			<path fill="#333333" d="M34.185-451.99H20.48c-1.892,0-3.425-1.533-3.425-3.426c0-1.892,1.533-3.425,3.425-3.425h13.704
				c1.894,0,3.427,1.533,3.427,3.425C37.611-453.523,36.078-451.99,34.185-451.99z"/>
		</g>
		<g>
			<path fill="#333333" d="M123.26-616.433c-0.89,0-1.763-0.346-2.417-0.998c-0.32-0.314-27.548-26.41-93.51-26.41
				c-66.024,0-93.242,26.146-93.51,26.411c-0.982,0.972-2.459,1.259-3.731,0.728c-1.276-0.533-2.11-1.776-2.11-3.158v-41.111
				c0-0.877,0.142-21.724,12.457-42.836c20.641-35.383,58.646-42.811,86.895-42.811c28.248,0,66.254,7.428,86.894,42.811
				c12.315,21.112,12.458,41.959,12.458,42.836v41.111c0,1.386-0.835,2.635-2.115,3.165
				C124.146-616.518,123.701-616.433,123.26-616.433z M27.333-739.765c-38.352,0-65.549,13.178-80.834,39.169
				c-11.485,19.528-11.666,39.432-11.666,39.631v33.956c11.43-8.099,40.214-23.683,92.5-23.683
				c52.287,0,81.071,15.583,92.499,23.683v-33.96c0-0.194-0.18-20.099-11.665-39.626C92.881-726.587,65.685-739.765,27.333-739.765z
				"/>
		</g>
		<g>
			<path fill="#333333" d="M131.251-601.872c-0.393,0-0.787-0.062-1.172-0.19c-0.44-0.146-44.716-14.655-102.746-14.655
				s-102.305,14.508-102.745,14.655c-1.458,0.488-3.073,0.02-4.049-1.175c-0.974-1.194-1.109-2.866-0.339-4.2l8.565-14.845
				l6.429,3.709l-3.959,6.862c16.101-4.305,52.29-12.428,96.098-12.428c43.807,0,79.997,8.124,96.098,12.428l-3.959-6.862
				l6.43-3.709l8.564,14.845c0.771,1.334,0.635,3.006-0.339,4.2C133.408-602.357,132.346-601.872,131.251-601.872z"/>
		</g>
		<g>
			<circle fill="#333333" cx="-24.055" cy="-554.767" r="10.278"/>
		</g>
		<g>
			<circle fill="#333333" cx="78.721" cy="-554.767" r="10.278"/>
		</g>
		<g>
			<path fill="#333333" d="M-0.074-619.859l75.371,29.12l-6.854-13.704h13.704l-6.851-13.703
				C75.297-618.146,41.037-619.859-0.074-619.859z"/>
		</g>
		<g>
			<path fill="#333333" d="M6.777-585.6c0,3.784-3.067,6.852-6.852,6.852h-41.11c-3.784,0-6.852-3.068-6.852-6.852l0,0
				c0-3.784,3.067-6.852,6.852-6.852h41.11C3.71-592.452,6.777-589.384,6.777-585.6L6.777-585.6z"/>
		</g>
		<g>
			<path fill="#333333" d="M102.703-585.6c0,3.784-3.068,6.852-6.852,6.852H54.74c-3.784,0-6.852-3.068-6.852-6.852l0,0
				c0-3.784,3.067-6.852,6.852-6.852h41.111C99.635-592.452,102.703-589.384,102.703-585.6L102.703-585.6z"/>
		</g>
		<g>
			<path fill="#333333" d="M27.333-409.734c-41.582,0-60.94-27.208-78.021-51.214c-1.851-2.601-3.69-5.187-5.546-7.725
				c-15.604-21.347-15.784-67.028-15.784-68.964v-68.519c0-1.892,1.533-3.426,3.427-3.426c1.892,0,3.425,1.534,3.425,3.426v68.519
				c0,0.451,0.181,45.381,14.464,64.921c1.872,2.561,3.73,5.171,5.598,7.795c16.907,23.763,34.391,48.335,72.438,48.335
				c1.893,0,3.427,1.533,3.427,3.426S29.226-409.734,27.333-409.734z"/>
		</g>
		<g>
			<path fill="#333333" d="M27.333-409.734c-1.893,0-3.426-1.533-3.426-3.426s1.533-3.426,3.426-3.426
				c38.048,0,55.53-24.571,72.438-48.334c1.867-2.625,3.725-5.235,5.597-7.796c14.299-19.561,14.464-64.469,14.464-64.921v-68.519
				c0-1.892,1.533-3.426,3.427-3.426c1.893,0,3.426,1.534,3.426,3.426v68.519c0,1.936-0.18,47.617-15.784,68.964
				c-1.855,2.538-3.695,5.124-5.547,7.726C88.274-436.941,68.915-409.734,27.333-409.734z"/>
		</g>
		<g>
			<path fill="#333333" stroke="#231F20" stroke-width="6.8518" stroke-linecap="round" stroke-miterlimit="10" d="M27.333-413.16"
				/>
		</g>
		<g>
			<path fill="#333333" d="M123.259-534.21c-1.894,0-3.427-1.533-3.427-3.427v-68.519c0-1.892,1.533-3.426,3.427-3.426
				c1.893,0,3.426,1.534,3.426,3.426v68.519C126.685-535.743,125.151-534.21,123.259-534.21z"/>
		</g>
		<g>
			<polygon fill="#333333" points="-72.306,-606.888 -90.29,-582.17 -76.585,-582.17 -81.297,-568.47 -68.592,-571.896 			"/>
		</g>
		<g>
			<polygon fill="#333333" points="126.973,-606.888 144.957,-582.17 131.251,-582.17 135.965,-568.47 123.259,-571.896 			"/>
		</g>
		<g>
			<g>
				<path fill="#333333" d="M-44.04-454.42c-1.497,0-2.71-1.213-2.71-2.708v-17.13c0-1.496,1.213-2.709,2.71-2.709
					c1.496,0,2.709,1.213,2.709,2.709v17.13C-41.331-455.633-42.544-454.42-44.04-454.42z"/>
			</g>
			<g>
				<path fill="#333333" d="M-33.285-440.716c-1.496,0-2.709-1.213-2.709-2.709v-17.129c0-1.496,1.213-2.709,2.709-2.709
					s2.709,1.213,2.709,2.709v17.129C-30.576-441.929-31.789-440.716-33.285-440.716z"/>
			</g>
			<g>
				<path fill="#333333" d="M-22.533-428.726c-1.496,0-2.709-1.213-2.709-2.709v-17.128c0-1.496,1.213-2.709,2.709-2.709
					c1.497,0,2.709,1.213,2.709,2.709v17.128C-19.824-429.938-21.036-428.726-22.533-428.726z"/>
			</g>
			<g>
				<path fill="#333333" d="M-11.779-420.16c-1.496,0-2.709-1.213-2.709-2.709v-17.13c0-1.496,1.213-2.709,2.709-2.709
					s2.709,1.213,2.709,2.709v17.13C-9.07-421.373-10.283-420.16-11.779-420.16z"/>
			</g>
			<g>
				<path fill="#333333" d="M-1.026-415.021c-1.495,0-2.708-1.213-2.708-2.709v-17.129c0-1.496,1.213-2.709,2.708-2.709
					c1.497,0,2.709,1.213,2.709,2.709v17.129C1.683-416.234,0.471-415.021-1.026-415.021z"/>
			</g>
			<g>
				<path fill="#333333" d="M9.729-411.596c-1.496,0-2.709-1.213-2.709-2.709v-17.13c0-1.495,1.213-2.708,2.709-2.708
					s2.709,1.213,2.709,2.708v17.13C12.438-412.809,11.226-411.596,9.729-411.596z"/>
			</g>
			<g>
				<path fill="#333333" d="M20.48-411.596c-1.495,0-2.708-1.213-2.708-2.709v-17.13c0-1.495,1.213-2.708,2.708-2.708
					c1.496,0,2.709,1.213,2.709,2.708v17.13C23.189-412.809,21.977-411.596,20.48-411.596z"/>
			</g>
		</g>
		<g>
			<g>
				<path fill="#333333" d="M98.707-454.704c-1.496,0-2.708-1.212-2.708-2.709v-17.129c0-1.496,1.212-2.709,2.708-2.709
					s2.709,1.213,2.709,2.709v17.129C101.416-455.916,100.203-454.704,98.707-454.704z"/>
			</g>
			<g>
				<path fill="#333333" d="M87.952-441.001c-1.496,0-2.709-1.212-2.709-2.708v-17.13c0-1.496,1.213-2.709,2.709-2.709
					c1.497,0,2.71,1.213,2.71,2.709v17.13C90.662-442.213,89.449-441.001,87.952-441.001z"/>
			</g>
			<g>
				<path fill="#333333" d="M77.199-429.01c-1.496,0-2.708-1.213-2.708-2.708v-17.13c0-1.496,1.212-2.709,2.708-2.709
					s2.709,1.213,2.709,2.709v17.13C79.908-430.223,78.695-429.01,77.199-429.01z"/>
			</g>
			<g>
				<path fill="#333333" d="M66.447-420.445c-1.497,0-2.71-1.213-2.71-2.709v-17.129c0-1.496,1.213-2.708,2.71-2.708
					c1.496,0,2.709,1.212,2.709,2.708v17.129C69.156-421.658,67.943-420.445,66.447-420.445z"/>
			</g>
			<g>
				<path fill="#333333" d="M55.691-415.306c-1.496,0-2.708-1.213-2.708-2.708v-17.13c0-1.497,1.212-2.709,2.708-2.709
					s2.709,1.212,2.709,2.709v17.13C58.4-416.519,57.188-415.306,55.691-415.306z"/>
			</g>
			<g>
				<path fill="#333333" d="M44.938-411.88c-1.496,0-2.709-1.213-2.709-2.709v-17.129c0-1.496,1.213-2.709,2.709-2.709
					s2.708,1.213,2.708,2.709v17.129C47.646-413.093,46.435-411.88,44.938-411.88z"/>
			</g>
			<g>
				<path fill="#333333" d="M34.185-411.88c-1.496,0-2.709-1.213-2.709-2.709v-17.129c0-1.496,1.213-2.709,2.709-2.709
					s2.709,1.213,2.709,2.709v17.129C36.894-413.093,35.681-411.88,34.185-411.88z"/>
			</g>
		</g>
		<g>
			<path fill="#333333" d="M38.101-666.351H13.629c-1.352,0-2.447-1.095-2.447-2.447c0-1.352,1.096-2.447,2.447-2.447h24.472
				c7.136,0,7.342-6.591,7.342-7.342v-19.579c0-6.905-6.127-7.325-7.354-7.339H13.629c-1.352,0-2.447-1.095-2.447-2.447
				s1.096-2.447,2.447-2.447h24.472c0.31,0,3.108,0.042,5.988,1.481c4.028,2.014,6.247,5.832,6.247,10.751v19.579
				c0,0.309-0.042,3.108-1.481,5.989C46.84-668.57,43.021-666.351,38.101-666.351z"/>
		</g>
		<g>
			<path fill="#333333" d="M18.524-666.351c-1.352,0-2.448-1.095-2.448-2.447v-39.154c0-1.352,1.097-2.447,2.448-2.447
				c1.351,0,2.446,1.095,2.446,2.447v39.154C20.971-667.446,19.875-666.351,18.524-666.351z"/>
		</g>
		<g>
			<path fill="#333333" d="M28.312-666.351c-1.352,0-2.448-1.095-2.448-2.447v-39.154c0-1.352,1.097-2.447,2.448-2.447
				c1.351,0,2.447,1.095,2.447,2.447v39.154C30.76-667.446,29.663-666.351,28.312-666.351z"/>
		</g>
		<g>
			<path fill="#333333" d="M18.524-690.824h-4.896c-1.352,0-2.447-1.096-2.447-2.447s1.096-2.447,2.447-2.447h4.896
				c1.351,0,2.446,1.096,2.446,2.447S19.875-690.824,18.524-690.824z"/>
		</g>
		<g>
			<path fill="#333333" d="M28.312-695.719h-9.788c-1.352,0-2.448-1.096-2.448-2.447c0-1.351,1.097-2.447,2.448-2.447h9.788
				c1.351,0,2.447,1.096,2.447,2.447C30.76-696.814,29.663-695.719,28.312-695.719z"/>
		</g>
		<g>
			<path fill="#333333" d="M28.312-676.14h-9.788c-1.352,0-2.448-1.095-2.448-2.447s1.097-2.447,2.448-2.447h9.788
				c1.351,0,2.447,1.096,2.447,2.447S29.663-676.14,28.312-676.14z"/>
		</g>
		<g>
			<path fill="#333333" d="M18.524-681.035h-4.896c-1.352,0-2.447-1.096-2.447-2.447c0-1.352,1.096-2.447,2.447-2.447h4.896
				c1.351,0,2.446,1.095,2.446,2.447C20.971-682.131,19.875-681.035,18.524-681.035z"/>
		</g>
		<g>
			<path fill="#333333" d="M28.312-690.824c-1.352,0-2.448-1.096-2.448-2.447c0-1.352,1.096-2.447,2.448-2.448
				c7.799-0.002,15.832-1.267,17.14-2.674c0.114-1.245,1.162-2.22,2.437-2.22c1.352,0,2.447,1.096,2.447,2.447
				C50.336-694.816,46.516-690.824,28.312-690.824z"/>
		</g>
		<g>
			<path fill="#333333" d="M47.889-676.14c-1.275,0-2.322-0.975-2.437-2.22c-1.307-1.409-9.34-2.672-17.14-2.675
				c-1.353,0-2.448-1.097-2.448-2.448s1.097-2.446,2.448-2.446c18.203,0,22.023,3.992,22.023,7.342
				C50.336-677.235,49.24-676.14,47.889-676.14z"/>
		</g>
		<g>
			<path fill="#333333" d="M16.076-479.003c-1.495,0-2.708-1.213-2.708-2.709v-6.482c0-1.496,1.213-2.708,2.708-2.708
				c1.497,0,2.71,1.212,2.71,2.708v6.482C18.786-480.216,17.573-479.003,16.076-479.003z"/>
		</g>
		<g>
			<path fill="#333333" d="M5.799-477.29c-1.496,0-2.709-1.213-2.709-2.709v-6.482c0-1.496,1.213-2.709,2.709-2.709
				s2.709,1.213,2.709,2.709v6.482C8.508-478.503,7.295-477.29,5.799-477.29z"/>
		</g>
		<g>
			<path fill="#333333" d="M-4.478-475.577c-1.497,0-2.709-1.213-2.709-2.709v-6.481c0-1.496,1.212-2.709,2.709-2.709
				c1.496,0,2.709,1.213,2.709,2.709v6.481C-1.769-476.79-2.981-475.577-4.478-475.577z"/>
		</g>
		<g>
			<path fill="#333333" d="M-14.756-472.151c-1.496,0-2.709-1.213-2.709-2.709v-6.481c0-1.496,1.213-2.709,2.709-2.709
				s2.709,1.213,2.709,2.709v6.481C-12.047-473.364-13.26-472.151-14.756-472.151z"/>
		</g>
		<g>
			<path fill="#333333" d="M38.086-479.003c-1.496,0-2.708-1.213-2.708-2.709v-6.482c0-1.496,1.212-2.708,2.708-2.708
				s2.709,1.212,2.709,2.708v6.482C40.795-480.216,39.582-479.003,38.086-479.003z"/>
		</g>
		<g>
			<path fill="#333333" d="M48.363-477.29c-1.495,0-2.708-1.213-2.708-2.709v-6.482c0-1.496,1.213-2.709,2.708-2.709
				c1.496,0,2.709,1.213,2.709,2.709v6.482C51.072-478.503,49.859-477.29,48.363-477.29z"/>
		</g>
		<g>
			<path fill="#333333" d="M58.643-475.577c-1.497,0-2.709-1.213-2.709-2.709v-6.481c0-1.496,1.212-2.709,2.709-2.709
				c1.495,0,2.708,1.213,2.708,2.709v6.481C61.351-476.79,60.138-475.577,58.643-475.577z"/>
		</g>
		<g>
			<path fill="#333333" d="M68.919-472.151c-1.496,0-2.709-1.213-2.709-2.709v-6.481c0-1.496,1.213-2.709,2.709-2.709
				s2.709,1.213,2.709,2.709v6.481C71.628-473.364,70.415-472.151,68.919-472.151z"/>
		</g>
	</g>
	<rect x="-200.033" y="-855" fill="#333333" width="4" height="542"/>
	<g>
		<path d="M923,328.708L954.146,391h-62.291L923,328.708 M923,322l-36,72h72L923,322L923,322z"/>
	</g>
	<polygon points="915.78,336.439 944.655,394 959,394 923,322 	"/>
	<text transform="matrix(1 0 0 1 904.0352 385.1436)" font-family="'Gotham-Medium'" font-size="12" letter-spacing="2">DEL</text>
	<text transform="matrix(1 0 0 1 955.79 385.1436)" font-family="'Gotham-Black'" font-size="12" letter-spacing="2">TA</text>
	<g>
		<g>
			<g>
				<g>
					<path fill="#16A084" d="M86.389,140.911c-16.087,0-19.125-10.229-19.685-14.628c-1.024-8.075,0.901-12.205,6.445-13.805
						c1.597-0.458,6.614-1.141,12.311-1.141c12.333,0,19.185,3.071,19.817,8.886c0.594,5.44-1.049,10.769-4.506,14.622
						C97.264,138.758,92.154,140.911,86.389,140.911z M85.46,114.496c-5.517,0-10.242,0.674-11.436,1.019
						c-2.686,0.775-5.221,2.214-4.186,10.369c0.974,7.654,6.852,11.869,16.55,11.869c4.856,0,9.131-1.782,12.032-5.018
						c2.857-3.186,4.211-7.621,3.715-12.17C101.54,115.089,90.275,114.496,85.46,114.496z"/>
				</g>
				<g>
					<path fill="#16A084" d="M133.611,140.911c-5.766,0-10.875-2.153-14.383-6.065c-3.456-3.854-5.098-9.182-4.505-14.622
						c0.632-5.814,7.484-8.886,19.816-8.886c5.696,0,10.714,0.683,12.311,1.141c5.543,1.6,7.471,5.729,6.444,13.805
						C152.736,130.682,149.698,140.911,133.611,140.911z M134.54,114.496c-4.815,0-16.08,0.593-16.675,6.069
						c-0.496,4.549,0.859,8.984,3.716,12.17c2.899,3.235,7.174,5.018,12.03,5.018c9.699,0,15.577-4.215,16.55-11.869
						c1.035-8.155-1.499-9.594-4.186-10.369C144.783,115.17,140.057,114.496,134.54,114.496z"/>
				</g>
				<g>
					<path fill="#16A084" d="M103.112,119.992c-0.577,0-1.137-0.32-1.414-0.874c-0.39-0.779-0.073-1.728,0.706-2.118
						c0.317-0.16,7.867-3.85,15.071,0.021c0.771,0.413,1.059,1.37,0.645,2.14c-0.413,0.768-1.37,1.057-2.14,0.644
						c-5.777-3.104-12.099-0.012-12.161,0.021C103.592,119.938,103.35,119.992,103.112,119.992z"/>
				</g>
			</g>
			<g>
				<path fill="#16A084" d="M110,149.742c-7.498,0-9.479-4.478-9.479-6.847c0-0.871,0.708-1.579,1.579-1.579
					c0.865,0,1.569,0.696,1.581,1.559c0.015,0.397,0.316,3.708,6.319,3.708c6.248,0,6.319-3.536,6.319-3.688
					c0-0.871,0.709-1.579,1.581-1.579s1.579,0.708,1.579,1.579C119.479,145.265,117.498,149.742,110,149.742z"/>
			</g>
			<g>
				<path fill="#16A084" d="M119.479,162.907h-18.959c-0.873,0-1.579-0.707-1.579-1.579c0-0.873,0.706-1.579,1.579-1.579h18.959
					c0.873,0,1.579,0.706,1.579,1.579C121.059,162.2,120.353,162.907,119.479,162.907z"/>
			</g>
			<g>
				<path fill="#16A084" d="M113.159,169.228h-6.318c-0.872,0-1.581-0.708-1.581-1.581c0-0.871,0.709-1.579,1.581-1.579h6.318
					c0.872,0,1.581,0.708,1.581,1.579C114.74,168.52,114.031,169.228,113.159,169.228z"/>
			</g>
			<g>
				<path fill="#16A084" d="M65.762,93.391c-0.203,0-0.409-0.04-0.604-0.12c-0.589-0.243-0.974-0.82-0.974-1.46V72.852
					c0-0.404,0.063-10.019,5.743-19.754C75.182,44.09,86.399,33.353,110,33.353c13.026,0,30.554,3.427,40.073,19.745
					c5.68,9.735,5.744,19.35,5.744,19.754v18.959c0,0.64-0.385,1.217-0.975,1.46s-1.267,0.11-1.719-0.34
					c-0.149-0.146-12.708-12.179-43.124-12.179c-30.59,0-42.998,12.055-43.121,12.177C66.576,93.231,66.173,93.391,65.762,93.391z
					 M110,77.592c24.113,0,37.388,7.186,42.657,10.921V72.852c0-0.088-0.083-9.269-5.38-18.274
					C140.229,42.591,127.687,36.514,110,36.514s-30.229,6.077-37.277,18.063c-5.297,9.006-5.38,18.187-5.38,18.276v15.659
					C72.612,84.777,85.887,77.592,110,77.592z"/>
			</g>
			<g>
				<path fill="#16A084" d="M62.076,100.106c-0.504,0-0.995-0.225-1.326-0.631c-0.449-0.55-0.512-1.321-0.156-1.937l3.951-6.846
					l2.963,1.71l-1.826,3.165c7.427-1.984,24.115-5.73,44.318-5.73s36.892,3.746,44.317,5.73l-1.825-3.165l2.963-1.71l3.951,6.846
					c0.355,0.615,0.293,1.386-0.157,1.937c-0.448,0.551-1.19,0.767-1.867,0.543c-0.202-0.067-20.62-6.758-47.382-6.758
					c-26.797,0-47.18,6.69-47.382,6.758C62.439,100.077,62.257,100.106,62.076,100.106z"/>
			</g>
			<g>
				<path fill="#16A084" d="M91.041,121.828c0,2.619-2.121,4.741-4.74,4.741c-2.617,0-4.74-2.122-4.74-4.741
					c0-2.615,2.123-4.737,4.74-4.737C88.92,117.091,91.041,119.213,91.041,121.828z"/>
			</g>
			<g>
				<path fill="#16A084" d="M138.439,121.828c0,2.619-2.123,4.741-4.74,4.741c-2.618,0-4.74-2.122-4.74-4.741
					c0-2.615,2.122-4.737,4.74-4.737C136.316,117.091,138.439,119.213,138.439,121.828z"/>
			</g>
			<g>
				<path fill="#16A084" d="M97.361,91.811l34.758,13.431l-3.16-6.321h6.319l-3.159-6.318
					C132.119,92.602,116.319,91.811,97.361,91.811z"/>
			</g>
			<g>
				<path fill="#16A084" d="M100.521,107.61c0,1.745-1.414,3.159-3.159,3.159h-18.96c-1.745,0-3.159-1.414-3.159-3.159l0,0
					c0-1.744,1.414-3.158,3.159-3.158h18.96C99.106,104.452,100.521,105.866,100.521,107.61L100.521,107.61z"/>
			</g>
			<g>
				<path fill="#16A084" d="M144.758,107.61c0,1.745-1.414,3.159-3.159,3.159H122.64c-1.745,0-3.16-1.414-3.16-3.159l0,0
					c0-1.744,1.415-3.158,3.16-3.158h18.959C143.344,104.452,144.758,105.866,144.758,107.61L144.758,107.61z"/>
			</g>
			<g>
				<path fill="#16A084" d="M110,188.713c-19.177,0-28.104-12.547-35.981-23.617c-0.853-1.2-1.702-2.391-2.558-3.562
					c-7.196-9.843-7.277-30.913-7.277-31.805V98.131c0-0.873,0.706-1.579,1.578-1.579c0.873,0,1.581,0.706,1.581,1.579v31.598
					c0,0.208,0.083,20.93,6.67,29.94c0.862,1.179,1.72,2.384,2.58,3.594c7.797,10.958,15.861,22.292,33.407,22.292
					c0.871,0,1.579,0.708,1.579,1.579C111.579,188.008,110.871,188.713,110,188.713z"/>
			</g>
			<g>
				<path fill="#16A084" d="M110,188.713c-0.871,0-1.579-0.705-1.579-1.579c0-0.871,0.708-1.579,1.579-1.579
					c17.547,0,25.609-11.334,33.407-22.29c0.86-1.212,1.717-2.417,2.58-3.596c6.587-9.011,6.67-29.732,6.67-29.94V98.131
					c0-0.873,0.708-1.579,1.581-1.579c0.871,0,1.579,0.706,1.579,1.579v31.598c0,0.892-0.082,21.962-7.278,31.805
					c-0.855,1.172-1.705,2.362-2.558,3.562C138.104,176.167,129.176,188.713,110,188.713z"/>
			</g>
			<g>
				<path fill="#16A084" stroke="#231F20" stroke-width="6.8753" stroke-linecap="round" stroke-miterlimit="10" d="M110,187.134"/>
			</g>
			<g>
				<path fill="#16A084" d="M154.238,131.31c-0.873,0-1.581-0.708-1.581-1.581V98.131c0-0.873,0.708-1.579,1.581-1.579
					c0.871,0,1.579,0.706,1.579,1.579v31.598C155.817,130.602,155.109,131.31,154.238,131.31z"/>
			</g>
			<g>
				<polygon fill="#16A084" points="64.05,97.794 55.755,109.191 62.076,109.191 59.901,115.51 65.762,113.931 				"/>
			</g>
			<g>
				<polygon fill="#16A084" points="155.95,97.794 164.245,109.191 157.924,109.191 160.099,115.51 154.238,113.931 				"/>
			</g>
			<g>
				<g>
					<path fill="#16A084" d="M77.084,168.106c-0.688,0-1.248-0.56-1.248-1.249v-7.9c0-0.69,0.56-1.248,1.248-1.248
						c0.69,0,1.25,0.558,1.25,1.248v7.9C78.334,167.547,77.774,168.106,77.084,168.106z"/>
				</g>
				<g>
					<path fill="#16A084" d="M82.045,174.426c-0.689,0-1.249-0.56-1.249-1.248v-7.899c0-0.691,0.56-1.251,1.249-1.251
						s1.247,0.56,1.247,1.251v7.899C83.292,173.866,82.734,174.426,82.045,174.426z"/>
				</g>
				<g>
					<path fill="#16A084" d="M87.003,179.956c-0.69,0-1.25-0.56-1.25-1.249v-7.899c0-0.689,0.56-1.249,1.25-1.249
						c0.688,0,1.249,0.56,1.249,1.249v7.899C88.252,179.396,87.691,179.956,87.003,179.956z"/>
				</g>
				<g>
					<path fill="#16A084" d="M91.963,183.905c-0.69,0-1.25-0.558-1.25-1.248v-7.9c0-0.688,0.56-1.248,1.25-1.248
						c0.688,0,1.248,0.56,1.248,1.248v7.9C93.211,183.348,92.651,183.905,91.963,183.905z"/>
				</g>
				<g>
					<path fill="#16A084" d="M96.922,186.275c-0.689,0-1.249-0.56-1.249-1.25v-7.9c0-0.688,0.56-1.246,1.249-1.246
						c0.69,0,1.25,0.559,1.25,1.246v7.9C98.172,185.716,97.612,186.275,96.922,186.275z"/>
				</g>
				<g>
					<path fill="#16A084" d="M101.882,187.856c-0.69,0-1.249-0.56-1.249-1.25v-7.899c0-0.69,0.559-1.248,1.249-1.248
						c0.689,0,1.248,0.558,1.248,1.248v7.899C103.13,187.297,102.571,187.856,101.882,187.856z"/>
				</g>
				<g>
					<path fill="#16A084" d="M106.841,187.856c-0.691,0-1.25-0.56-1.25-1.25v-7.899c0-0.69,0.559-1.248,1.25-1.248
						c0.688,0,1.248,0.558,1.248,1.248v7.899C108.089,187.297,107.529,187.856,106.841,187.856z"/>
				</g>
			</g>
			<g>
				<g>
					<path fill="#16A084" d="M142.915,167.976c-0.689,0-1.249-0.56-1.249-1.249v-7.9c0-0.688,0.56-1.249,1.249-1.249
						s1.249,0.561,1.249,1.249v7.9C144.164,167.416,143.604,167.976,142.915,167.976z"/>
				</g>
				<g>
					<path fill="#16A084" d="M137.955,174.295c-0.689,0-1.247-0.56-1.247-1.248v-7.899c0-0.69,0.558-1.25,1.247-1.25
						s1.249,0.56,1.249,1.25v7.899C139.204,173.735,138.645,174.295,137.955,174.295z"/>
				</g>
				<g>
					<path fill="#16A084" d="M132.997,179.824c-0.689,0-1.249-0.559-1.249-1.248v-7.9c0-0.688,0.56-1.25,1.249-1.25
						s1.249,0.562,1.249,1.25v7.9C134.246,179.266,133.687,179.824,132.997,179.824z"/>
				</g>
				<g>
					<path fill="#16A084" d="M128.038,183.774c-0.69,0-1.249-0.561-1.249-1.248v-7.9c0-0.689,0.559-1.249,1.249-1.249
						c0.689,0,1.249,0.56,1.249,1.249v7.9C129.287,183.214,128.728,183.774,128.038,183.774z"/>
				</g>
				<g>
					<path fill="#16A084" d="M123.078,186.145c-0.69,0-1.25-0.56-1.25-1.25v-7.9c0-0.688,0.56-1.247,1.25-1.247
						c0.689,0,1.249,0.56,1.249,1.247v7.9C124.327,185.585,123.768,186.145,123.078,186.145z"/>
				</g>
				<g>
					<path fill="#16A084" d="M118.118,187.726c-0.69,0-1.248-0.562-1.248-1.25v-7.899c0-0.69,0.558-1.251,1.248-1.251
						s1.249,0.561,1.249,1.251v7.899C119.367,187.164,118.809,187.726,118.118,187.726z"/>
				</g>
				<g>
					<path fill="#16A084" d="M113.159,187.726c-0.689,0-1.249-0.562-1.249-1.25v-7.899c0-0.69,0.56-1.251,1.249-1.251
						s1.25,0.561,1.25,1.251v7.899C114.409,187.164,113.849,187.726,113.159,187.726z"/>
				</g>
			</g>
			<g>
				<path fill="#16A084" d="M114.966,70.369h-11.285c-0.623,0-1.128-0.505-1.128-1.127c0-0.623,0.505-1.129,1.128-1.129h11.285
					c3.185,0,3.378-2.826,3.385-3.394v-9.022c0-3.184-2.826-3.377-3.391-3.384h-11.279c-0.623,0-1.128-0.505-1.128-1.128
					c0-0.624,0.505-1.13,1.128-1.13h11.285c0.143,0,1.433,0.021,2.762,0.685c1.857,0.929,2.88,2.689,2.88,4.957v9.029
					c0,0.145-0.019,1.434-0.682,2.762C118.997,69.347,117.235,70.369,114.966,70.369z"/>
			</g>
			<g>
				<path fill="#16A084" d="M105.937,70.369c-0.622,0-1.128-0.505-1.128-1.127V51.186c0-0.624,0.506-1.13,1.128-1.13
					c0.624,0,1.13,0.506,1.13,1.13v18.057C107.066,69.864,106.561,70.369,105.937,70.369z"/>
			</g>
			<g>
				<path fill="#16A084" d="M110.451,70.369c-0.623,0-1.129-0.505-1.129-1.127V51.186c0-0.624,0.506-1.13,1.129-1.13
					c0.624,0,1.128,0.506,1.128,1.13v18.057C111.579,69.864,111.075,70.369,110.451,70.369z"/>
			</g>
			<g>
				<path fill="#16A084" d="M105.937,59.083h-2.256c-0.623,0-1.128-0.504-1.128-1.129c0-0.622,0.505-1.126,1.128-1.126h2.256
					c0.624,0,1.13,0.504,1.13,1.126C107.066,58.579,106.561,59.083,105.937,59.083z"/>
			</g>
			<g>
				<path fill="#16A084" d="M110.451,56.826h-4.515c-0.622,0-1.128-0.504-1.128-1.129c0-0.622,0.506-1.129,1.128-1.129h4.515
					c0.624,0,1.128,0.507,1.128,1.129C111.579,56.322,111.075,56.826,110.451,56.826z"/>
			</g>
			<g>
				<path fill="#16A084" d="M110.451,65.854h-4.515c-0.622,0-1.128-0.504-1.128-1.128c0-0.623,0.506-1.129,1.128-1.129h4.515
					c0.624,0,1.128,0.506,1.128,1.129C111.579,65.351,111.075,65.854,110.451,65.854z"/>
			</g>
			<g>
				<path fill="#16A084" d="M105.937,63.598h-2.256c-0.623,0-1.128-0.505-1.128-1.128s0.505-1.128,1.128-1.128h2.256
					c0.624,0,1.13,0.505,1.13,1.128S106.561,63.598,105.937,63.598z"/>
			</g>
			<g>
				<path fill="#16A084" d="M110.451,59.083c-0.623,0-1.129-0.504-1.129-1.129c0-0.622,0.505-1.126,1.129-1.126
					c3.596-0.004,7.301-0.586,7.903-1.234c0.054-0.574,0.537-1.025,1.125-1.025c0.624,0,1.128,0.507,1.128,1.129
					C120.607,57.243,118.846,59.083,110.451,59.083z"/>
			</g>
			<g>
				<path fill="#16A084" d="M119.479,65.854c-0.588,0-1.071-0.449-1.125-1.023c-0.603-0.65-4.308-1.233-7.903-1.233
					c-0.623,0-1.129-0.505-1.129-1.128s0.506-1.128,1.129-1.128c8.395,0,10.156,1.841,10.156,3.385
					C120.607,65.351,120.104,65.854,119.479,65.854z"/>
			</g>
		</g>
		<g>
			<g>
				<path fill="#16A084" d="M65.762,136.678c0,1.1-0.9,2-2,2h-8.716c-1.1,0-2-0.9-2-2v-31.82c0-1.1,0.9-2,2-2h8.716c1.1,0,2,0.9,2,2
					V136.678z"/>
			</g>
			<g>
				<path fill="#16A084" d="M57.18,129.045c0,1.1-0.9,2-2,2h-3.297c-1.1,0-2-0.9-2-2v-16.554c0-1.1,0.9-2,2-2h3.297c1.1,0,2,0.9,2,2
					V129.045z"/>
			</g>
			<g>
				<path fill="#16A084" d="M60.697,105.241h-4.134V80.289c0.002-0.504,0.096-12.403,6.702-24.462
					c11.115-20.282,31.55-24.54,46.734-24.54v4.133c-48.576,0-49.296,43.043-49.303,44.874V105.241z"/>
			</g>
			<g>
				<path fill="#16A084" d="M154.238,136.678c0,1.1,0.9,2,2,2h8.716c1.1,0,2-0.9,2-2v-31.82c0-1.1-0.9-2-2-2h-8.716
					c-1.1,0-2,0.9-2,2V136.678z"/>
			</g>
			<g>
				<path fill="#16A084" d="M162.82,129.045c0,1.1,0.9,2,2,2h3.297c1.1,0,2-0.9,2-2v-16.554c0-1.1-0.9-2-2-2h-3.297
					c-1.1,0-2,0.9-2,2V129.045z"/>
			</g>
			<g>
				<path fill="#16A084" d="M163.437,105.241h-4.134V80.289C159.296,78.463,158.576,35.42,110,35.42v-4.133
					c15.185,0,35.619,4.258,46.734,24.54c6.606,12.059,6.7,23.958,6.702,24.459V105.241z"/>
			</g>
			<g>
				<rect x="160.188" y="136.525" fill="#16A084" width="1.788" height="68.475"/>
			</g>
		</g>
	</g>
	<g>
		<path fill="#16A084" d="M110,6.999c56.795,0,103.001,46.206,103.001,103.001S166.795,213.001,110,213.001S6.999,166.795,6.999,110
			S53.205,6.999,110,6.999 M110,1.999C50.354,1.999,1.999,50.354,1.999,110S50.354,218.001,110,218.001S218.001,169.646,218.001,110
			S169.646,1.999,110,1.999L110,1.999z"/>
	</g>
</g>
</svg>
